<?xml version="1.0" standalone="no"?>
<svg version="1.0" xmlns="http://www.w3.org/2000/svg"
 width="225.000000pt" height="225.000000pt" viewBox="0 0 225.000000 225.000000"
 preserveAspectRatio="xMidYMid meet" fill="#ab1d40">

<g transform="translate(0.000000,225.000000) scale(0.100000,-0.100000)"
fill="#000000" stroke="none">
<path d="M995 2240 c-469 -50 -873 -420 -969 -888 -77 -371 37 -748 308 -1018
519 -519 1372 -414 1754 217 266 439 191 1015 -180 1375 -246 240 -568 350
-913 314z m338 -722 c18 -14 113 -210 119 -245 2 -18 24 4 111 112 65 81 118
137 131 141 42 10 88 0 103 -22 13 -21 6 -32 -131 -198 l-145 -175 80 -166
c43 -91 79 -174 79 -185 0 -31 -28 -50 -75 -50 -55 0 -65 12 -130 154 -27 59
-52 105 -57 104 -5 -2 -55 -59 -111 -128 l-102 -125 -53 -3 c-109 -6 -108 31
4 168 48 58 113 137 145 176 l58 71 -53 109 c-57 117 -105 172 -173 195 -31
10 -35 9 -54 -15 -32 -41 -56 -49 -153 -51 -160 -4 -241 -43 -280 -135 -19
-47 -46 -191 -46 -249 0 -55 28 -107 67 -122 14 -5 65 -8 112 -7 l85 3 13 65
c15 71 12 90 -13 90 -26 0 -70 37 -84 70 -22 53 -6 60 136 60 169 0 163 11
119 -230 -25 -141 -38 -187 -52 -198 -14 -10 -55 -13 -188 -10 -189 4 -218 12
-281 80 -73 77 -85 147 -56 320 24 141 61 226 129 299 94 100 124 108 459 108
201 1 274 -2 287 -11z"/>
</g>
</svg>
