<svg xmlns="http://www.w3.org/2000/svg" width="800" height="800" viewBox="0 0 48 48"><g data-name="Layer 2"><g fill="none" data-name="invisible box"><path d="M0 0h48v48H0z"/><path d="M0 0h48v48H0z"/></g><path d="M24 1.9a21.6 21.6 0 0 0-6.8 42.2c1 .2 1.8-.9 1.8-1.8v-2.9c-6 1.3-7.9-2.9-7.9-2.9a6.5 6.5 0 0 0-2.2-3.2c-2-1.4.1-1.3.1-1.3a4.3 4.3 0 0 1 3.3 2c1.7 2.9 5.5 2.6 6.7 2.1a5.4 5.4 0 0 1 .5-2.9C12.7 32 9 28 9 22.6a10.7 10.7 0 0 1 2.9-7.6 6.2 6.2 0 0 1 .3-6.4 8.9 8.9 0 0 1 6.4 2.9 15.1 15.1 0 0 1 5.4-.8 17.1 17.1 0 0 1 5.4.7 9 9 0 0 1 6.4-2.8 6.5 6.5 0 0 1 .4 6.4 10.7 10.7 0 0 1 2.8 7.6c0 5.4-3.7 9.4-10.5 10.6a5.4 5.4 0 0 1 .5 2.9v6.2a1.8 1.8 0 0 0 1.9 1.8A21.7 21.7 0 0 0 24 1.9Z" data-name="icons Q2"/></g></svg>