<svg xmlns="http://www.w3.org/2000/svg" data-name="Layer 1" width="715.117" height="605.028"><path d="M44.755 255.887a25.667 25.667 0 0 0-25.638 25.638v108.724a25.667 25.667 0 0 0 25.638 25.638h168.724a25.667 25.667 0 0 0 25.638-25.638V281.525a25.667 25.667 0 0 0-25.638-25.638Z" fill="#fff"/><path d="M213.48 416.887H44.754a26.668 26.668 0 0 1-26.638-26.638V281.525a26.668 26.668 0 0 1 26.638-26.638h168.724a26.668 26.668 0 0 1 26.638 26.638v108.724a26.668 26.668 0 0 1-26.638 26.638Zm-168.725-160a24.666 24.666 0 0 0-24.638 24.638v108.724a24.666 24.666 0 0 0 24.638 24.638h168.724a24.666 24.666 0 0 0 24.638-24.638V281.525a24.666 24.666 0 0 0-24.638-24.638Z" fill="#3f3d56"/><path d="M114.287 308.334a134.583 134.583 0 0 0-7.94 9.026C100.836 324 95.4 330.695 89.947 337.373a2851.215 2851.215 0 0 0-10.152 12.461 24.789 24.789 0 0 1-3.028-2.29 27.16 27.16 0 0 1 34.706-41.772 25.034 25.034 0 0 1 2.815 2.562Z" fill="#5bc0de"/><path d="M215.18 305.18v4.03l-1.8-.66-25.33-9.26c-17.549 12.502-24.308 6.61-25-8.62-.35-7.709-15.28-2.02-22.64.29-2.633 5.635-6.421 11.16-17.64 10.95-3.063-.057-4.43 4.21-6.54 6.42-.69.73-1.38 1.46-2.06 2.19-2.04 2.22-6.023 3.84-5.88 6.84.45 9.385-1.293 17.788-16.4 20.01-5.315.783-11.051 7.196-10.16 12.46 3.535 20.86-16.413 30.363-33.46 41.27a19.536 19.536 0 0 1-4.43-.56q16.966-21.075 34.09-42.04l.78-.96c1.34-1.67 2.71-3.35 4.07-5.02q8.536-10.455 17.08-20.89c4.14-5.06 8.25-10.14 12.71-14.94.27-.31.55-.61.84-.92.43-.46.86-.91 1.3-1.38 9.69-10.01 21.78-18.86 36.26-19.1 8.52-.13 16.75 2.57 24.67 5.42 8.53 3.09 17.03 6.23 25.55 9.35Z" fill="#3f3d56"/><path d="M208.117 330.502v3.136l-1.4-.513-19.713-7.207c-13.657 9.729-18.918 5.143-19.456-6.708-.272-6-11.89-1.572-17.618.226-2.05 4.385-4.998 8.684-13.728 8.521-2.384-.044-3.448 3.276-5.09 4.996a319.25 319.25 0 0 0-1.603 1.705c-1.587 1.727-4.687 2.988-4.576 5.323.35 7.303-1.007 13.842-12.763 15.572-4.136.609-8.6 5.6-7.906 9.696 2.75 16.233-12.774 23.63-26.04 32.118a15.204 15.204 0 0 1-3.447-.436q13.202-16.401 26.53-32.717l.606-.747c1.043-1.3 2.11-2.607 3.168-3.906q6.642-8.137 13.292-16.257c3.222-3.938 6.42-7.891 9.891-11.627.21-.241.428-.475.654-.716.334-.358.669-.708 1.011-1.074 7.541-7.79 16.95-14.677 28.219-14.864 6.63-.101 13.035 2 19.198 4.218 6.638 2.405 13.253 4.848 19.884 7.276Z" fill="#3f3d56"/><path d="M202.117 354.824v2.242l-1.002-.367-14.094-5.153c-9.765 6.956-13.527 3.678-13.911-4.796-.195-4.29-8.502-1.124-12.598.161-1.465 3.135-3.573 6.21-9.815 6.093-1.705-.032-2.465 2.343-3.64 3.572-.383.407-.767.813-1.146 1.219-1.135 1.235-3.351 2.137-3.272 3.806.25 5.222-.72 9.897-9.125 11.134-2.958.436-6.15 4.004-5.654 6.934 1.967 11.606-9.133 16.895-18.618 22.964a10.872 10.872 0 0 1-2.465-.312q9.44-11.727 18.969-23.393l.434-.534c.746-.929 1.508-1.864 2.265-2.793q4.749-5.818 9.504-11.624c2.303-2.816 4.59-5.642 7.072-8.313.15-.173.306-.34.467-.512l.724-.768c5.392-5.57 12.119-10.494 20.176-10.628 4.741-.072 9.32 1.43 13.728 3.016 4.746 1.72 9.476 3.466 14.217 5.203Z" fill="#3f3d56"/><path d="m375.378 196.22 14.379 22.16-11.342 9.242-14.38-23.922a9.332 9.332 0 0 1-2.328-1.211 8.473 8.473 0 1 1 9.842-13.767 9.013 9.013 0 0 1 3.83 7.498ZM574.749 577.747l-8.782 5.71-26.202-31.154 12.96-8.427 22.024 33.871z" fill="#ffb6b6"/><path d="m581.015 586.707-27.004 17.558-.222-.341a12.538 12.538 0 0 1 3.676-17.345l2.5-6.95 11.636-2.242 2.357-1.533Z" fill="#2f2e41"/><path fill="#ffb6b6" d="m424.259 592.709-10.474-.001-4.983-40.402 15.459.001-.002 40.402z"/><path d="M424.628 603.635h-32.21v-.408a12.538 12.538 0 0 1 12.536-12.537h.001l5.884-4.464 10.977 4.465h2.812ZM532.679 343.405l-93.928 2.065-9.31 11.638s-10.981 5.728-11.698 10.235-7.051 84.53-3.626 87.544-6.495 23.82-7.224 25.09-8.581 63.899 0 69.049l3.224 21.861h15s15.026-17.39 12.002-20.542 5.625-13.634 5.956-19.255 3.489-31.115 1.042-35.203-5.754-19.428.453-25.375 35.155-79.03 35.155-79.03 8.412 85.678 8.392 92.405c-.026 8.749 5.72 4.419 5.72 12.1 0 1.551 18.707 41.434 31.28 53.9l26 20 12-9v-13s-11.12-24.12-15-28-18.203-15.754-18.203-21.185-6.743-7.323-2.208-14.524 2.984-10.303 1.432-13.407 16.293-100.861 16.293-100.861Z" fill="#2f2e41"/><path d="m514.894 166.014-40.753-1.958-10.43 17.108s-30.459 3.057-26.103 14.514 8.137 79.48 1.98 89.304-15.609 1.68-7.393 20.881-10.067 52.984-10.067 52.984l53.197 11.217s42.673-12.414 50.431-20.172 14.741-13.966 10.086-16.293-17.844-3.88-10.862-14.742 7.837-10.36 7.798-17.593-4.12-25.159-4.12-25.159 26.78-75.956 18.713-78.823-30.59-16.118-30.59-16.118Z" fill="#e6e6e6"/><path d="M462.156 189.313s-23.372-11.107-26.82 4.137-16.758 53.486-16.758 53.486-14.743-8.535-12.413-13.19-10.286-5.36-6.207-13.189-14.742-15.517-14.742-15.517l-22.5 9.31s8.713 13.058 14.501 18.815-2.859 6.785 4.12 13.771 21.032 33.122 21.032 33.122l18.298 7.629 51.39-31.395Z" fill="#e6e6e6"/><circle cx="493.513" cy="126.477" r="28.383" fill="#ffb6b6"/><path d="M512.002 133.77c1.348-.686 3.066.512 3.389 1.989a5.563 5.563 0 0 1-1.231 4.23 26.615 26.615 0 0 0-2.596 3.71 3.98 3.98 0 0 0 .246 4.272 3.567 3.567 0 0 0 3.73.787 7.968 7.968 0 0 0 3.236-2.338c5.426-5.887 11.086-15.66 8.312-23.171a7.336 7.336 0 0 1-.27-2.472c-.053-.956-.23-2.396.67-2.72 2.512-.907-4.536-15.59-15.414-18.784.53-5.013-25.641-12.225-24.213-5.93.257 1.13-2.27.515-3.427.578-8.88.48-18.908 2.712-18.099 13.003.313 3.985-1.335 3.066-2.659 6.838 2.062 1.23 2.738 3.925 4.328 2.126s2.947-4.052 5.226-4.807c2.426-.805 5.058.399 7.127 1.9s3.968 3.364 6.4 4.15c2.728.881 5.703.268 8.547.625 4.044.507 7.634 2.978 10.307 6.055a50.27 50.27 0 0 1 6.402 10.378" fill="#2f2e41"/><path d="m618.783 604.72-315.358.308a1.19 1.19 0 0 1 0-2.381l315.358-.307a1.19 1.19 0 0 1 0 2.38Z" fill="#cacaca"/><path d="M519.755 355.887a25.667 25.667 0 0 0-25.638 25.638v108.724a25.667 25.667 0 0 0 25.638 25.638h168.724a25.667 25.667 0 0 0 25.638-25.638V381.525a25.667 25.667 0 0 0-25.638-25.638Z" fill="#fff"/><path d="M688.48 516.887H519.754a26.668 26.668 0 0 1-26.638-26.638V381.525a26.668 26.668 0 0 1 26.638-26.638h168.724a26.668 26.668 0 0 1 26.638 26.638v108.724a26.668 26.668 0 0 1-26.638 26.638Zm-168.725-160a24.666 24.666 0 0 0-24.638 24.638v108.724a24.666 24.666 0 0 0 24.638 24.638h168.724a24.666 24.666 0 0 0 24.638-24.638V381.525a24.666 24.666 0 0 0-24.638-24.638Z" fill="#3f3d56"/><ellipse cx="829.243" cy="611.212" rx="5.257" ry="7.557" transform="rotate(-81.722 622.773 677.603)" fill="#e6e6e6"/><ellipse cx="878.414" cy="606.414" rx="5.257" ry="7.557" transform="rotate(-81.722 671.945 672.805)" fill="#3f3d56"/><ellipse cx="815.778" cy="571.403" rx="5.257" ry="7.557" transform="rotate(-81.722 609.309 637.795)" fill="#ff6584"/><ellipse cx="798.568" cy="556.16" rx="4.776" ry="3.322" transform="rotate(-89.567 603.044 604.558)" fill="#e6e6e6"/><ellipse cx="791.322" cy="525.789" rx="4.776" ry="3.322" transform="rotate(-89.567 595.799 574.187)" fill="#3f3d56"/><ellipse cx="847.667" cy="579.241" rx="4.776" ry="3.322" transform="rotate(-89.567 652.144 627.639)" fill="#e6e6e6"/><ellipse cx="823.905" cy="591.105" rx="4.776" ry="3.322" transform="rotate(-89.567 628.382 639.503)" fill="#ff6584"/><ellipse cx="856.983" cy="613.032" rx="4.776" ry="3.322" transform="rotate(-89.567 661.46 661.43)" fill="#3f3d56"/><ellipse cx="628.902" cy="445.191" rx="5.257" ry="7.557" fill="#e6e6e6"/><ellipse cx="617.074" cy="397.223" rx="5.257" ry="7.557" fill="#3f3d56"/><ellipse cx="591.447" cy="464.247" rx="5.257" ry="7.557" fill="#ff6584"/><ellipse cx="821.283" cy="630.959" rx="4.776" ry="3.322" transform="rotate(-7.845 -375.417 2325.12)" fill="#e6e6e6"/><ellipse cx="792.271" cy="642.502" rx="4.776" ry="3.322" transform="rotate(-7.845 -404.43 2336.663)" fill="#3f3d56"/><ellipse cx="837.053" cy="579.048" rx="4.776" ry="3.322" transform="rotate(-7.845 -359.647 2273.209)" fill="#e6e6e6"/><ellipse cx="852.215" cy="600.854" rx="4.776" ry="3.322" transform="rotate(-7.845 -344.485 2295.015)" fill="#ff6584"/><ellipse cx="869.152" cy="564.964" rx="4.776" ry="3.322" transform="rotate(-7.845 -327.548 2259.125)" fill="#3f3d56"/><path d="M190.755 36.887a25.667 25.667 0 0 0-25.638 25.638v108.724a25.667 25.667 0 0 0 25.638 25.638h168.724a25.667 25.667 0 0 0 25.638-25.638V62.525a25.667 25.667 0 0 0-25.638-25.638Z" fill="#fff"/><path d="M359.48 197.887H190.754a26.668 26.668 0 0 1-26.638-26.638V62.525a26.668 26.668 0 0 1 26.638-26.638h168.724a26.668 26.668 0 0 1 26.638 26.638v108.724a26.668 26.668 0 0 1-26.638 26.638Zm-168.725-160a24.665 24.665 0 0 0-24.638 24.638v108.724a24.665 24.665 0 0 0 24.638 24.638h168.724a24.665 24.665 0 0 0 24.638-24.638V62.525a24.665 24.665 0 0 0-24.638-24.638Z" fill="#3f3d56"/><path d="M257.934 145.395a22.225 22.225 0 0 0-15.944-6.508h-.237a22.767 22.767 0 0 1-11.477-3.099l-.362-.211.292-.3a22.191 22.191 0 0 0 3.913-5.541 6.71 6.71 0 0 1-5.415 1.75 6.871 6.871 0 0 1-5.044-3.232c-2.14-3.472-4.69-8.398-4.69-12.151a22.836 22.836 0 0 1 7.45-16.851 14.22 14.22 0 0 0 4.697-10.603l-.001-.285a32.252 32.252 0 0 1 .957-7.804l.065-.258.265.01a21.804 21.804 0 0 0 5.098-.428 17.209 17.209 0 0 1-4.572-1.216l-.285-.115.096-.293c6.675-4.133 21.742-1.992 30.488-22.001 7.09-16.225 32.111 14.402 32.111 32.105 0 1.807-1.787 4.194-.45 5.388 14.468 12.906 4.486 21.194 1.339 29.533-.747 1.979.872 4.151.872 6.292 0 .363-.01.738-.028 1.114l-.027.578-.483-.32a15.977 15.977 0 0 1-2.638-2.165 13.924 13.924 0 0 1-.442 12.02 21.286 21.286 0 0 1-4.36 6.09 22.762 22.762 0 0 1-31.188-1.5Z" fill="#5bc0de"/><path d="M282.154 188.444a.41.41 0 0 0 .405-.352 137.192 137.192 0 0 0 .191-28.765c-1.414-15.094-5.956-36.835-19.561-54.691a.41.41 0 1 0-.652.497c13.488 17.701 17.993 39.283 19.397 54.27a136.265 136.265 0 0 1-.186 28.573.41.41 0 0 0 .406.468Z" fill="#3f3d56"/><path d="M271.051 129.822a.41.41 0 0 0 .241-.741 56.475 56.475 0 0 0-12.467-6.347c-6.879-2.518-17.339-4.801-28.107-1.374a.41.41 0 1 0 .248.781c10.548-3.357 20.818-1.112 27.577 1.363a55.548 55.548 0 0 1 12.268 6.24.408.408 0 0 0 .24.078ZM289.805 83.113a.41.41 0 0 0-.722-.294 56.474 56.474 0 0 0-7.228 11.979c-3.007 6.679-6.038 16.947-3.395 27.935a.41.41 0 1 0 .797-.192c-2.588-10.762.39-20.844 3.345-27.407a55.548 55.548 0 0 1 7.108-11.786.408.408 0 0 0 .095-.235Z" fill="#3f3d56"/><path d="M328.173 68.395c-5.153-21.646-4.294-42.966 4.531-63.854a4.892 4.892 0 0 1 5.22-4.529l48.224 3.422a4.892 4.892 0 0 1 4.53 5.22l-4.532 63.854a4.892 4.892 0 0 1-5.22 4.53l-48.224-3.423a4.892 4.892 0 0 1-4.529-5.22Z" fill="#f2f2f2"/><path d="M333.24 49.37c-4.124-10.666-1.486-25.336 2.914-41.05a4.582 4.582 0 0 1 4.889-4.241l41.444 2.94a4.582 4.582 0 0 1 4.242 4.89l-4.032 56.82a4.582 4.582 0 0 1-4.89 4.242l-25.673-1.822a20.41 20.41 0 0 1-18.893-21.778Z" fill="#fff"/><circle cx="353.535" cy="55.447" r="4.274" fill="#5bc0de"/><path d="M370.138 18.055c-1.018-2.322-3.988-2.896-6.51-3.16a29.432 29.432 0 0 0-7.808-.12 9.913 9.913 0 0 0-6.626 3.772c-1.832 2.633-1.752 6.12-1.354 9.304a62.741 62.741 0 0 0 4.945 17.74l1.679 1.491a38.482 38.482 0 0 0 15.86-25.335 6.652 6.652 0 0 0-.186-3.692Z" fill="#5bc0de"/><path d="M3.173 435.395c-5.153-21.646-4.294-42.966 4.531-63.854a4.892 4.892 0 0 1 5.22-4.529l48.224 3.422a4.892 4.892 0 0 1 4.53 5.22l-4.532 63.854a4.892 4.892 0 0 1-5.22 4.53l-48.224-3.423a4.892 4.892 0 0 1-4.529-5.22Z" fill="#f2f2f2"/><path d="M8.24 416.37c-4.124-10.666-1.486-25.336 2.914-41.05a4.582 4.582 0 0 1 4.889-4.241l41.444 2.94a4.582 4.582 0 0 1 4.242 4.89l-4.032 56.82a4.582 4.582 0 0 1-4.89 4.242l-25.673-1.822A20.41 20.41 0 0 1 8.24 416.371Z" fill="#fff"/><path d="M51.846 390.118c-9.738 4.796-17.432 9.238-21.477 19.265-2.606-6.006-5.212-8.011-7.817-14.017-.767-1.766-3.352-.24-2.59 1.515l9.253 21.326c.544 1.254 2.401.763 2.741-.359a41.711 41.711 0 0 1 21.405-25.14c1.731-.852.213-3.44-1.515-2.59Z" fill="#5bc0de"/><path d="M509.173 426.395c-5.153-21.646-4.294-42.966 4.531-63.854a4.892 4.892 0 0 1 5.22-4.529l48.224 3.422a4.892 4.892 0 0 1 4.53 5.22l-4.532 63.854a4.892 4.892 0 0 1-5.22 4.53l-48.224-3.423a4.892 4.892 0 0 1-4.529-5.22Z" fill="#f2f2f2"/><path d="M514.24 407.37c-4.124-10.666-1.486-25.336 2.914-41.05a4.582 4.582 0 0 1 4.889-4.241l41.444 2.94a4.582 4.582 0 0 1 4.242 4.89l-4.032 56.82a4.582 4.582 0 0 1-4.89 4.242l-25.673-1.822a20.41 20.41 0 0 1-18.893-21.778Z" fill="#fff"/><path d="M557.846 381.118c-9.738 4.796-17.432 9.238-21.477 19.265-2.606-6.006-5.212-8.011-7.817-14.017-.767-1.766-3.352-.24-2.59 1.515l9.253 21.326c.544 1.254 2.401.763 2.741-.359a41.711 41.711 0 0 1 21.405-25.14c1.731-.852.213-3.44-1.515-2.59Z" fill="#5bc0de"/><path d="m525.395 351.943 13.228-21.617 13.403 5.834-14.799 22.357a8.484 8.484 0 1 1-11.832-6.574Z" fill="#ffb6b6"/><path d="M526.679 200.666s18.474-6.722 20.801-2.066 14.827 89.602 13.233 94.068-11.681-7.948-1.595 4.465 8.534 9.31 6.207 11.638-11.928 34.92-11.928 34.92l-26.718-3.519 9.163-50.797-11.803-63.452Z" fill="#e6e6e6"/></svg>