<svg xmlns="http://www.w3.org/2000/svg" width="454.054" height="272.245"><g fill="#f2f2f2"><path d="M351.944 45.147c-.845-1.423-4.497.1-5.169-1.191-.669-1.288 2.725-3.249 4.664-7.73.35-.808 2.553-5.9.922-7.472-3.092-2.978-17.24 9.313-22.191 5.29-1.087-.882-1.846-2.644-5.135-5.505-1.308-1.138-2.099-1.652-2.864-1.46-1.087.27-1.173 1.724-2.338 4.583-1.747 4.287-2.78 4.029-3.798 7.45-.756 2.538-.583 4.015-1.472 4.302-1.258.407-2.417-2.286-4.011-2.045-1.627.246-2.611 3.382-2.922 5.73-.583 4.406 1.035 7.314 1.932 10.37.975 3.323 1.553 8.376-.698 15.528l-22.277 62.766c4.918-12.879 19.159-48.185 25.142-61.305 1.728-3.787 3.635-7.629 7.551-9.145 3.77-1.46 8.949-.588 15.55-2.179.772-.185 2.911-.73 3.18-1.988.223-1.04-1.035-1.621-.842-2.596.26-1.307 2.734-1.323 5.775-2.83 2.145-1.064 3.48-2.329 4.63-3.416.346-.328 5.495-5.262 4.37-7.157Z"/><path d="M264.299 78.19c-.943.003-1.249 2.236-2.076 2.193-.825-.043-.809-2.275-2.449-4.52-.295-.404-2.159-2.955-3.4-2.608-2.355.659-.404 11.149-3.807 12.418-.747.279-1.83.143-4.184.932-.936.313-1.416.553-1.543.984-.18.612.508 1.074 1.575 2.47 1.6 2.095 1.175 2.527 2.56 4.013 1.028 1.104 1.803 1.445 1.687 1.965-.163.735-1.819.526-2.16 1.378-.35.87.906 2.257 1.969 3.087 1.994 1.558 3.888 1.603 5.647 2.045 1.912.48 4.559 1.654 7.42 4.822l24.378 29.044c-4.902-6.13-18.122-23.306-22.835-30.029-1.36-1.94-2.695-3.985-2.31-6.344.372-2.272 2.294-4.562 3.418-8.261.131-.432.481-1.64-.058-2.134-.447-.41-1.095.04-1.517-.336-.567-.504.14-1.724.276-3.651.097-1.36-.138-2.38-.34-3.258-.061-.264-.997-4.215-2.251-4.21ZM283.098 82.41l-.568-5.068.26-.384c1.2-1.777 1.812-3.512 1.82-5.16 0-.261-.012-.523-.024-.79-.049-1.057-.11-2.371.575-3.903.384-.854 1.464-2.831 3.086-2.587.437.062.767.262 1.018.497l.115-.18c.505-.772.906-1.102 1.291-1.42.296-.245.602-.497 1.082-1.094.21-.262.374-.492.512-.685.42-.585.968-1.283 1.935-1.27 1.033.048 1.573.902 1.932 1.468.64 1.008.93 1.735 1.122 2.217.07.176.15.374.19.436.332.489 3.038.031 4.057-.135 2.29-.382 4.27-.712 5.087.732.585 1.032.15 2.398-1.33 4.167-.462.55-.952.97-1.388 1.297.361.216.684.546.815 1.065.308 1.228-.748 2.46-3.137 3.663-.594.301-1.393.703-2.512.896a9.867 9.867 0 0 1-1.409.125c-.008.235-.063.49-.207.751-.42.771-1.293 1.138-2.61 1.05-1.448-.076-2.641-.352-3.694-.595-.918-.21-1.71-.389-2.332-.347-1.152.093-2.04 1.015-3.083 2.212l-2.603 3.042ZM285.732 52.234l-4.759 1.835-.437-.154c-2.023-.71-3.857-.862-5.452-.451-.253.065-.503.143-.758.223-1.01.315-2.266.708-3.922.434-.923-.155-3.11-.698-3.285-2.33a1.838 1.838 0 0 1 .223-1.11l-.205-.065c-.873-.294-1.295-.597-1.7-.889-.312-.224-.633-.456-1.333-.769-.306-.137-.57-.237-.792-.322-.673-.258-1.486-.61-1.72-1.55-.214-1.01.475-1.75.93-2.24a12.216 12.216 0 0 1 1.86-1.648c.153-.112.325-.24.374-.294.389-.446-.74-2.947-1.16-3.89-.95-2.118-1.771-3.95-.582-5.106.85-.828 2.282-.754 4.369.229.65.307 1.179.675 1.606 1.013.117-.404.355-.8.823-1.058 1.11-.61 2.57.1 4.34 2.105.442.498 1.033 1.17 1.503 2.203.222.487.364.94.478 1.33.23-.05.49-.062.78.01.852.21 1.428.963 1.677 2.258.294 1.421.33 2.645.362 3.725.03.942.057 1.753.255 2.344.383 1.091 1.5 1.716 2.922 2.421l3.603 1.746ZM283.098 37.303l-.568-5.068.26-.384c1.2-1.777 1.812-3.512 1.82-5.16 0-.26-.012-.523-.024-.79-.049-1.057-.11-2.37.575-3.903.384-.854 1.464-2.831 3.086-2.586.437.06.767.261 1.018.496l.115-.18c.505-.772.906-1.102 1.291-1.42.296-.245.602-.497 1.082-1.094.21-.262.374-.492.512-.685.42-.585.968-1.283 1.935-1.27 1.033.049 1.573.903 1.932 1.468.64 1.008.93 1.735 1.122 2.217.07.176.15.375.19.436.332.49 3.038.031 4.057-.135 2.29-.382 4.27-.712 5.087.732.585 1.033.15 2.398-1.33 4.167-.462.551-.952.97-1.388 1.297.361.216.684.546.815 1.065.308 1.228-.748 2.46-3.137 3.663-.594.301-1.393.703-2.512.896a9.867 9.867 0 0 1-1.409.125c-.008.235-.063.49-.207.751-.42.771-1.293 1.138-2.61 1.05-1.448-.076-2.641-.352-3.694-.595-.918-.21-1.71-.389-2.332-.347-1.152.093-2.04 1.016-3.083 2.212l-2.603 3.042Z"/><path d="m288.284 135.68-1.062-.665-.257-1.226.257 1.226-1.239.142c-.02-.115-.086-.38-.188-.793-.554-2.266-2.244-9.162-3.654-20.023a204.149 204.149 0 0 1-1.655-23.17c-.115-7.807.254-13.717.55-18.467.224-3.582.496-6.994.763-10.317.71-8.879 1.379-17.265.88-26.55-.11-2.073-.34-6.387-2.861-10.978-1.463-2.663-3.477-5.027-5.987-7.023l1.56-1.963c2.772 2.207 5 4.826 6.624 7.782 2.795 5.09 3.047 9.791 3.168 12.05.507 9.449-.17 17.916-.887 26.88-.264 3.311-.536 6.708-.759 10.276-.293 4.706-.66 10.565-.545 18.27.112 7.702.663 15.401 1.633 22.887 1.393 10.724 3.058 17.517 3.605 19.75.291 1.19.352 1.44.054 1.913Z"/><path d="M269.235 21.817c-.103 0-.207-.002-.312-.01-2.134-.115-4.11-1.392-5.875-3.795-.827-1.13-1.25-2.42-2.095-4.993-.13-.396-.767-2.408-1.154-5.175-.253-1.809-.221-2.565.138-3.233.397-.744 1.04-1.263 1.765-1.613a1.416 1.416 0 0 1 .098-.739c.427-1.045 1.563-.908 2.177-.842.31.04.699.09 1.117.069.658-.032 1.012-.228 1.548-.522.513-.281 1.15-.63 2.096-.824 1.865-.39 3.427.14 3.942.313 2.71.903 4.047 3.01 5.593 5.45.309.49 1.367 2.27 2.066 4.713.504 1.762.433 2.545.281 3.128-.308 1.196-1.036 1.882-2.885 3.394-1.93 1.583-2.9 2.376-3.732 2.858-1.937 1.119-3.153 1.821-4.768 1.821Z"/></g><path d="M199.059 155.483c-7.794 4.068-12.012 11.387-9.422 16.346s11.005 5.681 18.8 1.61a22.001 22.001 0 0 0 7.909-6.74l32.804-17.652-8.612-15.217-31.425 19.017a22.003 22.003 0 0 0-10.054 2.636Z" fill="#ffb6b6"/><path d="M225.338 143.594v-20.507c0-1.182.962-2.145 2.145-2.145h9.923c1.183 0 2.145.963 2.145 2.145v20.507a2.147 2.147 0 0 1-2.145 2.145h-9.923a2.147 2.147 0 0 1-2.145-2.145Z" fill="#5bc0de"/><circle cx="367.15" cy="81.197" r="29.393" fill="#ff6884"/><path d="m338.123 267.588-33.214.459-13.316-148.478a13.594 13.594 0 0 1 3.194-9.997l32.66-38.155a13.453 13.453 0 0 1 18.082-2.24l40.906 28.983a13.461 13.461 0 0 1 5.673 10.142l29.86 100.314-4.006 33.454.04.046 4.733 24.305-84.612 1.167Z" fill="#e6e6e6"/><path d="m331.166 105.94-.535-6.891a3.313 3.313 0 0 1 3.043-3.555l9.682-.752a3.312 3.312 0 0 1 3.555 3.043l.535 6.892a3.312 3.312 0 0 1-3.043 3.555l-9.682.751a3.313 3.313 0 0 1-3.555-3.043Z" fill="#5bc0de"/><path d="m314.85 161.02-1.978-25.497a3.313 3.313 0 0 1 3.043-3.555l14.334-1.112a3.312 3.312 0 0 1 3.554 3.043l1.98 25.497a3.312 3.312 0 0 1-3.043 3.555l-14.334 1.113a3.313 3.313 0 0 1-3.555-3.043ZM351.883 218.19a3.317 3.317 0 0 1-3.429-2.953l-2.637-24.588a3.28 3.28 0 0 1 1.04-2.78 3.284 3.284 0 0 1 2.853-.827l.74.138a3.313 3.313 0 0 1 2.696 2.997l1.897 24.451a3.282 3.282 0 0 1-.823 2.452 3.278 3.278 0 0 1-2.337 1.11ZM321.544 217.124l-1.984-25.572a3.29 3.29 0 0 1 2.962-3.548l13.004-1.328c1.804-.165 3.433 1.134 3.627 2.94l2.76 25.83a3.283 3.283 0 0 1-.747 2.467 3.282 3.282 0 0 1-2.288 1.184l-13.779 1.07a3.313 3.313 0 0 1-3.555-3.043Z" fill="#3f3d56"/><path d="m399.905 228.621 11.62 17.361 2.757 20.324 8.17-.114-4.668-23.971-18.55-21.958a8.593 8.593 0 0 0 .67 8.358Z" fill="#ccc"/><path fill="#3f3d56" d="m380.396 263.513 33.106-3.025.042.465-33.106 3.026zM379.768 259.224l31.405-2.684.04.465-31.405 2.684zM379.204 255.39l30.013-2.919.045.465-30.013 2.92zM379.169 251.57l28.79-3.199.052.464-28.79 3.199zM378.618 247.892l27.658-3.127.052.464-27.658 3.127zM377.157 243.736l27.011-2.096.036.465-27.011 2.096zM376.29 240.83l26.227-2.346.042.466-26.228 2.345zM375.492 238.158l25.372-2.819.052.464-25.372 2.819zM374.602 234.564l25.084-2.391.044.465-25.084 2.39zM373.579 231.713l23.992-2.618.051.465-23.992 2.618zM372.606 228.412l23.821-2.083.04.466-23.82 2.083z"/><path d="m370.102 218.737-2.448-31.545a3.313 3.313 0 0 1 3.043-3.555l15.265-1.184a3.313 3.313 0 0 1 3.554 3.043l2.449 31.544a3.312 3.312 0 0 1-3.043 3.555l-15.265 1.185a3.313 3.313 0 0 1-3.555-3.043Z" fill="#5bc0de"/><path d="m338.123 267.588-27.155.376-.218.003-1.623-20.912a4.816 4.816 0 0 1 4.424-5.168l26.689-2.072a4.816 4.816 0 0 1 5.168 4.425l1.758 22.647-.233.018-8.81.683Z" fill="#ccc"/><path d="m367.523 161.379-1.87-24.102a3.313 3.313 0 0 1 3.042-3.555l5.031-.39a3.312 3.312 0 0 1 3.555 3.042l1.87 24.102a3.312 3.312 0 0 1-3.042 3.555l-5.031.39a3.313 3.313 0 0 1-3.555-3.042Z" fill="#3f3d56"/><path d="m380.837 266.614-2.983-20.359-5.703-19.211-1.578-5.26c-2.516-1.439-5.593.619-5.225 3.494l.291 2.271 5.703 19.212 2.983 20.358" fill="#ccc"/><path d="m46.583 271.34-33.214.459L.053 123.32a13.594 13.594 0 0 1 3.194-9.996l32.66-38.156a13.453 13.453 0 0 1 18.082-2.24l40.906 28.983a13.461 13.461 0 0 1 5.673 10.142l29.86 100.314-4.005 33.454.039.047 4.733 24.305-84.612 1.167Z" fill="#e6e6e6"/><path d="m39.626 109.693-.535-6.892a3.313 3.313 0 0 1 3.043-3.555l9.683-.751a3.312 3.312 0 0 1 3.554 3.043l.535 6.891a3.312 3.312 0 0 1-3.043 3.555l-9.682.752a3.313 3.313 0 0 1-3.555-3.043Z" fill="#5bc0de"/><path d="m23.31 164.773-1.978-25.497a3.313 3.313 0 0 1 3.043-3.555l14.334-1.113a3.312 3.312 0 0 1 3.555 3.043l1.978 25.498a3.312 3.312 0 0 1-3.042 3.555l-14.334 1.112a3.313 3.313 0 0 1-3.555-3.043ZM60.343 221.943a3.317 3.317 0 0 1-3.429-2.954l-2.637-24.588a3.28 3.28 0 0 1 1.041-2.78 3.284 3.284 0 0 1 2.852-.826l.74.137a3.313 3.313 0 0 1 2.696 2.997l1.897 24.452a3.282 3.282 0 0 1-.823 2.451 3.278 3.278 0 0 1-2.337 1.11ZM30.004 220.876l-1.984-25.571a3.29 3.29 0 0 1 2.962-3.548l13.004-1.329c1.804-.165 3.433 1.134 3.627 2.94l2.76 25.831a3.283 3.283 0 0 1-.747 2.467 3.282 3.282 0 0 1-2.288 1.184l-13.779 1.069a3.313 3.313 0 0 1-3.555-3.043Z" fill="#3f3d56"/><path d="m108.365 232.374 11.62 17.36 2.757 20.325 8.17-.115-4.667-23.971-18.55-21.958a8.593 8.593 0 0 0 .67 8.359Z" fill="#ccc"/><path fill="#3f3d56" d="m88.856 267.266 33.106-3.025.042.465-33.106 3.026zM88.228 262.976l31.405-2.684.04.465-31.405 2.684zM87.664 259.143l30.013-2.92.045.465-30.013 2.92zM87.629 255.323l28.79-3.199.052.464-28.79 3.199zM87.078 251.645l27.658-3.127.052.464-27.658 3.127zM85.617 247.488l27.011-2.096.036.465-27.011 2.096zM84.75 244.581l26.227-2.345.042.466-26.228 2.345zM83.952 241.91l25.372-2.818.052.464-25.372 2.819zM83.063 238.315l25.084-2.39.044.464-25.084 2.391zM82.04 235.465l23.992-2.618.051.465-23.992 2.618zM81.066 232.165l23.821-2.083.04.466-23.82 2.083z"/><path d="m78.563 222.49-2.448-31.545a3.313 3.313 0 0 1 3.042-3.555l15.265-1.185a3.313 3.313 0 0 1 3.555 3.043l2.448 31.544a3.312 3.312 0 0 1-3.043 3.555l-15.264 1.185a3.313 3.313 0 0 1-3.555-3.043Z" fill="#5bc0de"/><path d="m46.583 271.34-27.154.377-.22.002-1.622-20.911a4.816 4.816 0 0 1 4.424-5.169l26.69-2.071a4.816 4.816 0 0 1 5.168 4.424l1.757 22.647-.232.018-8.811.684Z" fill="#ccc"/><path d="m75.983 165.131-1.87-24.102a3.313 3.313 0 0 1 3.042-3.555l5.031-.39a3.312 3.312 0 0 1 3.555 3.043l1.87 24.102a3.312 3.312 0 0 1-3.042 3.555l-5.031.39a3.313 3.313 0 0 1-3.555-3.043Z" fill="#3f3d56"/><path d="m89.298 270.366-2.984-20.358-5.703-19.212-1.578-5.259c-2.516-1.44-5.593.618-5.225 3.493l.291 2.272 5.703 19.211 2.983 20.358" fill="#ccc"/><path d="m221.722 269.135-33.213.458-13.316-148.478a13.594 13.594 0 0 1 3.194-9.997l32.66-38.155a13.453 13.453 0 0 1 18.082-2.24l40.906 28.983c3.337 2.364 21.29 15.782 21.558 19.863l-8.531 102.148 18.5 21.9.04.046 4.733 24.304-84.613 1.168Z" fill="#e6e6e6"/><path d="m214.766 107.487-.535-6.892a3.313 3.313 0 0 1 3.043-3.555l9.682-.751a3.312 3.312 0 0 1 3.555 3.043l.535 6.891a3.312 3.312 0 0 1-3.043 3.555l-9.682.751a3.313 3.313 0 0 1-3.555-3.042Z" fill="#5bc0de"/><path d="m198.45 162.567-1.978-25.497a3.313 3.313 0 0 1 3.043-3.555l14.334-1.113a3.313 3.313 0 0 1 3.554 3.043l1.98 25.498a3.313 3.313 0 0 1-3.044 3.555l-14.333 1.112a3.313 3.313 0 0 1-3.556-3.043ZM230.775 189.757a2.816 2.816 0 0 0-.894 2.388l2.637 24.588a2.849 2.849 0 0 0 2.946 2.537 2.793 2.793 0 0 0 2.006-.954c.517-.582.768-1.33.708-2.105l-1.898-24.452a2.845 2.845 0 0 0-2.316-2.574l-.74-.137a2.817 2.817 0 0 0-2.45.71ZM191.46 222.224a3.283 3.283 0 0 1-1.193-2.295l-1.897-24.451a3.313 3.313 0 0 1 2.201-3.378l.71-.25a3.285 3.285 0 0 1 2.945.377 3.28 3.28 0 0 1 1.458 2.586l1.188 24.7a3.316 3.316 0 0 1-3.053 3.459 3.283 3.283 0 0 1-2.36-.748Z" fill="#3f3d56"/><path d="m283.505 230.167 11.62 17.361 2.757 20.325 8.17-.115-4.668-23.971-18.55-21.958a8.593 8.593 0 0 0 .67 8.358Z" fill="#ccc"/><path fill="#3f3d56" d="m263.996 265.06 33.106-3.025.042.465-33.106 3.026zM263.368 260.77l31.405-2.684.04.465-31.405 2.684zM262.804 256.937l30.013-2.92.045.465-30.013 2.92zM262.769 253.117l28.79-3.199.052.464-28.79 3.199zM262.218 249.44l27.658-3.128.052.464-27.658 3.127zM260.757 245.282l27.011-2.096.036.465-27.011 2.096zM259.89 242.375l26.227-2.345.042.466-26.228 2.345zM259.092 239.705l25.372-2.819.052.464-25.372 2.819zM258.202 236.11l25.084-2.391.044.465-25.084 2.39zM257.179 233.26l23.992-2.619.051.465-23.992 2.618zM256.206 229.96l23.821-2.084.04.466-23.82 2.083z"/><path d="m253.702 220.283-2.448-31.544a3.313 3.313 0 0 1 3.043-3.556L269.562 184a3.313 3.313 0 0 1 3.554 3.043l2.449 31.544a3.312 3.312 0 0 1-3.043 3.555l-15.265 1.185a3.313 3.313 0 0 1-3.555-3.043Z" fill="#5bc0de"/><path d="m221.722 269.135-27.154.376-.218.002-1.623-20.911a4.816 4.816 0 0 1 4.424-5.17l26.69-2.07a4.816 4.816 0 0 1 5.167 4.424l1.758 22.647-.233.018-8.81.684Z" fill="#ccc"/><path d="m251.123 162.925-1.87-24.102a3.313 3.313 0 0 1 3.042-3.555l5.031-.39a3.312 3.312 0 0 1 3.555 3.043l1.87 24.101a3.312 3.312 0 0 1-3.042 3.555l-5.031.39a3.313 3.313 0 0 1-3.555-3.042Z" fill="#3f3d56"/><path d="m264.437 268.16-2.983-20.358-5.703-19.212-1.578-5.259c-2.516-1.44-5.593.618-5.225 3.493l.291 2.272 5.702 19.211 2.984 20.358" fill="#ccc"/><path fill="#ccc" d="m28.69 271.312 425.352-5.514.012.933-425.352 5.514z"/><g fill="#f2f2f2"><path d="M226.032 176.967c-.844-1.424-4.497.1-5.168-1.191-.67-1.288 2.724-3.25 4.663-7.73.35-.808 2.553-5.9.922-7.472-3.092-2.978-17.24 9.313-22.191 5.29-1.087-.882-1.846-2.644-5.134-5.505-1.309-1.138-2.1-1.652-2.865-1.461-1.087.271-1.173 1.725-2.338 4.584-1.747 4.287-2.78 4.028-3.798 7.449-.755 2.539-.583 4.015-1.472 4.303-1.258.407-2.416-2.286-4.01-2.045-1.628.246-2.612 3.382-2.923 5.73-.583 4.406 1.035 7.313 1.932 10.37.975 3.323 1.553 8.375-.697 15.528l-22.278 62.766c4.918-12.88 19.159-48.185 25.143-61.305 1.727-3.788 3.634-7.63 7.55-9.145 3.77-1.46 8.95-.589 15.55-2.18.772-.185 2.911-.73 3.18-1.988.223-1.04-1.035-1.62-.842-2.595.26-1.307 2.734-1.323 5.775-2.831 2.145-1.063 3.48-2.328 4.63-3.415.346-.328 5.495-5.262 4.37-7.157Z"/><path d="M138.387 210.01c-.943.003-1.248 2.236-2.076 2.193-.825-.044-.809-2.275-2.448-4.52-.296-.404-2.16-2.955-3.402-2.608-2.353.658-.403 11.148-3.806 12.418-.747.279-1.83.143-4.183.931-.937.314-1.417.554-1.544.985-.18.611.508 1.073 1.575 2.47 1.6 2.094 1.175 2.527 2.56 4.013 1.029 1.104 1.803 1.445 1.688 1.964-.164.735-1.82.527-2.161 1.379-.35.87.906 2.257 1.969 3.087 1.994 1.558 3.888 1.602 5.647 2.044 1.912.48 4.559 1.654 7.42 4.823l24.378 29.044c-4.902-6.13-18.122-23.306-22.834-30.029-1.36-1.94-2.696-3.985-2.31-6.345.371-2.271 2.293-4.561 3.417-8.26.132-.432.482-1.64-.058-2.135-.447-.41-1.095.04-1.517-.335-.567-.505.14-1.724.277-3.652.097-1.359-.139-2.38-.34-3.257-.062-.265-.998-4.215-2.252-4.21ZM157.186 214.23l-.567-5.069.26-.384c1.2-1.776 1.811-3.512 1.819-5.158 0-.262-.011-.524-.024-.79-.049-1.058-.11-2.372.575-3.904.385-.854 1.464-2.832 3.086-2.587.437.061.768.262 1.018.497l.115-.181c.506-.771.906-1.101 1.291-1.42.296-.244.602-.496 1.082-1.094.21-.261.374-.491.513-.685.42-.585.968-1.282 1.934-1.27 1.033.05 1.574.903 1.932 1.468.64 1.009.93 1.736 1.122 2.218.07.176.15.374.19.435.333.49 3.038.032 4.057-.134 2.29-.382 4.27-.712 5.087.731.585 1.033.15 2.399-1.33 4.168-.461.55-.952.97-1.388 1.297.361.215.684.546.815 1.065.309 1.228-.747 2.459-3.137 3.663-.594.301-1.393.702-2.512.896a9.867 9.867 0 0 1-1.409.125c-.008.234-.063.489-.206.75-.42.772-1.294 1.139-2.61 1.05-1.449-.075-2.642-.352-3.694-.594-.92-.21-1.71-.39-2.332-.348-1.153.093-2.041 1.016-3.084 2.213l-2.603 3.042ZM159.82 184.054l-4.758 1.834-.438-.153c-2.023-.71-3.856-.862-5.451-.451-.254.065-.504.143-.759.223-1.01.315-2.266.708-3.921.433-.924-.155-3.11-.697-3.285-2.329a1.838 1.838 0 0 1 .222-1.11c-.066-.02-.133-.043-.204-.066-.874-.293-1.295-.596-1.7-.888-.313-.225-.634-.457-1.333-.77-.307-.136-.571-.237-.793-.321-.672-.258-1.486-.611-1.72-1.55-.214-1.01.475-1.75.93-2.24a12.216 12.216 0 0 1 1.86-1.648c.154-.113.325-.24.374-.294.39-.446-.74-2.947-1.16-3.891-.95-2.118-1.771-3.95-.582-5.106.851-.827 2.282-.754 4.37.23.649.306 1.178.675 1.606 1.013.116-.404.354-.8.823-1.058 1.11-.61 2.568.099 4.34 2.105.44.498 1.032 1.169 1.503 2.203.221.487.363.94.478 1.33.23-.05.49-.062.779.01.852.21 1.429.962 1.677 2.258.294 1.42.33 2.645.362 3.724.03.943.058 1.754.256 2.344.382 1.092 1.5 1.717 2.922 2.422l3.602 1.746ZM157.186 169.123l-.567-5.068.26-.385c1.2-1.776 1.811-3.511 1.819-5.158 0-.262-.011-.524-.024-.79-.049-1.058-.11-2.372.575-3.904.385-.854 1.464-2.832 3.086-2.587.437.061.768.262 1.018.497l.115-.181c.506-.771.906-1.101 1.291-1.42.296-.244.602-.496 1.082-1.093.21-.262.374-.492.513-.686.42-.584.968-1.282 1.934-1.27 1.033.05 1.574.903 1.932 1.469.64 1.008.93 1.735 1.122 2.217.07.176.15.374.19.435.333.49 3.038.032 4.057-.134 2.29-.382 4.27-.712 5.087.732.585 1.032.15 2.398-1.33 4.167-.461.55-.952.97-1.388 1.297.361.215.684.546.815 1.065.309 1.228-.747 2.46-3.137 3.663-.594.301-1.393.703-2.512.896a9.867 9.867 0 0 1-1.409.125c-.008.235-.063.49-.206.75-.42.772-1.294 1.139-2.61 1.05-1.449-.075-2.642-.352-3.694-.594-.92-.21-1.71-.389-2.332-.347-1.153.093-2.041 1.015-3.084 2.212l-2.603 3.042Z"/><path d="m162.372 267.5-1.062-.665-.257-1.226.257 1.226-1.238.142c-.02-.115-.087-.38-.189-.793-.554-2.266-2.244-9.162-3.653-20.023a204.149 204.149 0 0 1-1.656-23.17c-.115-7.807.255-13.717.55-18.467.225-3.583.496-6.994.763-10.317.71-8.879 1.379-17.265.88-26.55-.11-2.073-.34-6.387-2.861-10.978-1.462-2.663-3.476-5.027-5.987-7.024l1.561-1.962c2.772 2.207 5 4.825 6.624 7.782 2.794 5.09 3.046 9.791 3.167 12.05.507 9.448-.17 17.916-.887 26.88-.264 3.311-.536 6.708-.758 10.276-.294 4.706-.66 10.564-.546 18.27.113 7.702.663 15.4 1.633 22.887 1.393 10.724 3.058 17.517 3.605 19.749.291 1.192.353 1.441.054 1.914Z"/><path d="M143.323 153.637c-.103 0-.207-.003-.312-.01-2.134-.115-4.11-1.392-5.875-3.796-.827-1.13-1.25-2.42-2.094-4.992-.131-.396-.768-2.408-1.154-5.176-.254-1.808-.222-2.564.137-3.232.397-.744 1.041-1.263 1.765-1.613a1.416 1.416 0 0 1 .098-.74c.427-1.044 1.563-.907 2.177-.841.311.04.699.09 1.117.068.659-.031 1.012-.227 1.548-.52.513-.282 1.15-.632 2.096-.826 1.865-.389 3.428.14 3.943.314 2.71.903 4.046 3.01 5.593 5.45.308.489 1.366 2.27 2.065 4.713.504 1.762.433 2.545.282 3.127-.309 1.197-1.037 1.882-2.886 3.395-1.93 1.583-2.9 2.376-3.732 2.858-1.937 1.118-3.153 1.82-4.768 1.82Z"/></g></svg>