<svg xmlns="http://www.w3.org/2000/svg" data-name="Layer 1" width="1099.099" height="743.353"><path d="M751.355 142.103a67.6 67.6 0 0 0-97.127-1.736L312.204 482.394a48.295 48.295 0 0 1-68.119.102l-50.655-50.554a67.438 67.438 0 0 0-95.391 0L0 530.087h1099.099v-13.991Z" fill="#f0f0f0"/><path d="M350.799 712.335c-57.798-18.193-114.63-18.195-168.917-.005l-.636-1.897c54.697-18.327 111.945-18.329 170.153-.005ZM953.799 667.335c-57.797-18.193-114.63-18.196-168.917-.005l-.635-1.897c54.696-18.327 111.944-18.329 170.152-.005Z" fill="#e4e4e4"/><ellipse cx="909.63" cy="286.853" rx="216.764" ry="140.553" transform="rotate(-68.92 827.34 284.45)" fill="#5bc0de"/><path d="M775.324 571.313a1.874 1.874 0 0 1-1.853-1.61c-.08-.56-7.879-56.804-.875-131.555 6.469-69.035 27.24-168.469 89.466-250.132a1.874 1.874 0 1 1 2.981 2.272c-61.688 80.958-82.292 179.662-88.715 248.21-6.963 74.316.774 130.122.853 130.677a1.876 1.876 0 0 1-1.857 2.138Z" fill="#3f3d56"/><path d="M806.43 295.998a1.874 1.874 0 0 1-1.104-3.39c.226-.164 22.99-16.566 57.022-29.027 31.46-11.518 79.298-21.96 128.548-6.285a1.874 1.874 0 1 1-1.137 3.571c-48.24-15.352-95.212-5.083-126.123 6.234-33.545 12.282-55.884 28.378-56.106 28.539a1.867 1.867 0 0 1-1.1.358Z" fill="#3f3d56"/><ellipse cx="290.763" cy="337.842" rx="140.553" ry="216.764" transform="rotate(-21.08 55.056 434.258)" fill="#5bc0de"/><path d="M324.169 622.302a1.874 1.874 0 0 0 1.853-1.61c.08-.56 7.878-56.804.874-131.555-6.468-69.035-27.24-168.469-89.466-250.132a1.874 1.874 0 1 0-2.981 2.271c61.688 80.959 82.292 179.663 88.715 248.21 6.963 74.317-.774 130.122-.853 130.677a1.876 1.876 0 0 0 1.858 2.139Z" fill="#3f3d56"/><path d="M293.062 346.987a1.874 1.874 0 0 0 1.104-3.39c-.226-.165-22.99-16.567-57.021-29.027-31.46-11.518-79.3-21.96-128.548-6.285a1.874 1.874 0 1 0 1.136 3.571c48.24-15.352 95.212-5.083 126.123 6.234 33.546 12.282 55.884 28.377 56.106 28.538a1.867 1.867 0 0 0 1.1.359Z" fill="#3f3d56"/><path d="M226.729 701.94c-.096-.289-9.414-29.12 7.077-54.845l1.684 1.079c-15.964 24.903-6.957 52.854-6.864 53.134Z" fill="#e4e4e4"/><path d="M244.935 651.533a13.113 13.113 0 0 1-25.243-7.113c1.964-6.97 13.858-24.264 20.829-22.3s6.378 22.443 4.414 29.413ZM243.21 683.937c-6.325 6.834-17.64 6.65-17.64 6.65s-1.06-11.267 5.265-18.1 17.638-6.65 17.638-6.65 1.06 11.266-5.264 18.1ZM885.729 652.94c-.096-.289-9.414-29.12 7.077-54.845l1.684 1.079c-15.964 24.903-6.957 52.854-6.864 53.134Z" fill="#e4e4e4"/><path d="M904.598 601.794a13.113 13.113 0 1 1-25.661-5.412c1.494-7.086 14.164-24.722 21.25-23.228s5.906 21.554 4.411 28.64ZM902.21 634.937c-6.325 6.834-17.64 6.65-17.64 6.65s-1.06-11.267 5.265-18.1 17.638-6.65 17.638-6.65 1.06 11.266-5.264 18.1Z" fill="#e4e4e4"/><path d="M326.099 620.626s125-266 264-225 43 254 43 254Z" fill="#cacaca"/><path fill="#3f3d56" d="m323.889 627.22 17-23 172-56 289.21 28.406.719 11.094-91.929 95.5-387-56z"/><path fill="#a0616a" d="M507.088 698.2h9.096l4.328-35.086h-13.425l.001 35.086z"/><path d="M504.768 695.23h17.914a11.417 11.417 0 0 1 11.417 11.416v.37l-29.33.002Z" fill="#2f2e41"/><path fill="#a0616a" d="m471.876 679.566-7.369 5.332-24.074-25.888 10.876-7.87 20.567 28.426z"/><path d="m478.925 685.35-23.763 17.193-.217-.3A11.417 11.417 0 0 1 457.5 686.3l14.514-10.501ZM481.832 543.179s-9.543-7.148-19.863 0l-7.142 59.57h21.445l3.178-19.062 7.148-28.594Z" fill="#2f2e41"/><path d="m503.317 635.181-38.489-12.568-18.349 14.56 19.493 29.8-10.195 13.37-.292-.332c-1.265-1.44-30.977-35.395-30.89-45.025a72.454 72.454 0 0 1 3.28-19.246l9.652-13.7 13.699-4.028 45.35 6.365.075.01 18.323 11.153a14.395 14.395 0 0 1 6.534 10.6c.787 7.082 2.37 63.795 2.385 64.367l.01.372h-19.79Z" fill="#2f2e41"/><path d="M478.905 620.952c-6.69-2.973-15.232-14.582-16.64-16.54-2.753 1.499-22.826 12.227-28.485 9.469-.822.453-4.537 2.67-5.207 6.016l-.167.839-.485-.705c-.09-.13-8.808-13.094 2.47-21.15 10.284-7.346 13.05-14.766 13.34-15.615l-5.58-29.493.147-.136c.458-.425 11.32-10.42 21.232-11.608l6.114-1.078.267 23.276v29.798c4.94-.62 12.756-52.687 12.756-52.687l4.084 1.497c1.055.202 12.915 2.571 16.062 7.292l.102.153-10.786 29.164-3.155 4.75v6.08l18.43 16.025-.262.275c-.628.657-14.218 14.792-22.135 14.79a5.132 5.132 0 0 1-2.102-.412Z" fill="#2f2e41"/><circle cx="471.88" cy="517.234" r="17.769" fill="#a0616a"/><path d="M467.406 626.243a6.957 6.957 0 0 1 8.972-5.772l10.185-12.208 8.928 4.38-14.624 17.038a6.995 6.995 0 0 1-13.46-3.438Z" fill="#a0616a"/><path d="m474.605 615.89 15.977-21.57-3.958-21.37 6.421-24.077.162-.07c.13-.055 3.202-1.35 5.541-.38a3.745 3.745 0 0 1 2.086 2.167c1.59 3.974 5.421 44.447 5.584 46.238-.033.327-.82 8.046-2.42 11.246-1.592 3.185-16.117 19.255-16.735 19.938l-.255.282ZM487.144 512.66c-5.915 7.439-16.052 6.076-24.163 3.354a25.704 25.704 0 0 1-4.573 16.78c1.047-4.219-3.365-5.059-5.94-6.628-.992-1.255-.168-3.128-.575-4.674-4.623-5.42-7.687-9.51-1.752-15.871 3.474-4.65 7.644-10.457 14.263-9.235 5.238-6.11 13.82-4.521 19.677-.247a41.834 41.834 0 0 1 7.136 6.705 28.403 28.403 0 0 1-3.707 9.31" fill="#2f2e41"/><path d="m552.099 638.626 154.29 23.094 95-85s-45-185-207-198-279 249-279 249l16.966.725S420.389 424.72 540.389 418.72s11.71 219.906 11.71 219.906Z" fill="#e4e4e4"/><path d="M582.599 449.126h-102a21 21 0 0 1 0-42h102a21 21 0 0 1 0 42Z" fill="#cacaca"/><path d="M679.948 575.637a6.871 6.871 0 0 1-1.636-10.408l-8.93-89.601 14.91.99 4.13 88.229a6.908 6.908 0 0 1-8.474 10.79Z" fill="#ffb8b8"/><path d="m690.332 472.309-3.909 29.709.543 18.208-16.398 1.501-3.287-15.144-1.81-40.092a11.964 11.964 0 0 1 10.57-12.424 11.964 11.964 0 0 1 13.243 10.316Z" fill="#2f2e41"/><path fill="#ffb7b7" d="m627.534 733.711-9.947-.001-4.732-38.368 14.681.001-.002 38.368z"/><path d="m630.07 743.353-32.073-.001v-.406a12.485 12.485 0 0 1 12.484-12.484h19.59Z" fill="#2f2e41"/><path fill="#ffb7b7" d="m709.669 733.711-9.947-.001-4.732-38.368 14.681.001-.002 38.368z"/><path d="m712.206 743.353-32.074-.001v-.406a12.485 12.485 0 0 1 12.484-12.484h19.591Z" fill="#2f2e41"/><circle cx="670.989" cy="418.379" r="21.566" fill="#ffb8b8"/><path d="m668.202 448.7 14.967 1.711a39.827 39.827 0 0 1 5.092 35.963l-11.293 32.67s15.677 31.427 15.677 60.606S722.5 712.982 722.5 712.982l-42.024 4.383-18.337-110.953-25.268 110.506-28.847-4.696 15.888-144.885 10.499-47.688.447-23.256s-4.464-17.45 6.709-28.623l13.64-19.007ZM645.849 410.677h31.69v-13.814c-6.955-2.764-13.762-5.114-17.876 0a13.814 13.814 0 0 0-13.814 13.814Z" fill="#2f2e41"/><path d="M679.294 394.425c18.946 0 24.249 23.748 24.249 37.145 0 7.471-3.38 10.143-8.689 11.048l-1.875-10.001-4.392 10.43c-1.491.008-3.058-.02-4.683-.05l-1.489-3.067-3.32 3.011c-13.3.02-24.049 1.959-24.049-11.371 0-13.397 4.65-37.145 24.248-37.145Z" fill="#2f2e41"/><path opacity=".2" d="m651.277 525.592-.801-34.786-2.125-15.444-5.253 15.298 8.179 34.932z"/><path d="m712.396 549.708-34.297-2.931-1.444-97.41 16.721 1.074a6.243 6.243 0 0 1 5.092 3.299l21.94 41.626-1.281 48.325a6.206 6.206 0 0 1-6.187 6.04q-.27 0-.544-.023Z" fill="#5bc0de"/><path d="M635.32 484.665c0-21.568 13.13-39.114 29.267-39.114s29.267 17.546 29.267 39.114-13.13 39.114-29.267 39.114-29.267-17.547-29.267-39.114Zm3.83 0c0 19.456 11.41 35.284 25.437 35.284s25.438-15.828 25.438-35.284-11.412-35.285-25.438-35.285-25.438 15.829-25.438 35.285Z" fill="#5bc0de"/><path fill="#3f3d56" d="m711.359 544.591 2.255-49.179-23.102-45.161-.975.498 22.971 44.902-2.242 48.89 1.093.05z"/><path d="M655.137 579.257a7.528 7.528 0 0 1-1.172-11.484l-4.442-98.56 16.253 1.97-.726 96.773a7.57 7.57 0 0 1-9.913 11.301Z" fill="#ffb8b8"/><path d="m672.64 466.828-6.042 32.27-.489 19.954-18.03.668-2.695-16.764.403-43.97a13.109 13.109 0 0 1 12.303-12.965 13.109 13.109 0 0 1 13.875 12.073Z" fill="#2f2e41"/><path d="M410.9 613.731a3.968 3.968 0 0 1-3.955-3.862l-.82-30.895 14.028-26.613a3.991 3.991 0 0 1 3.256-2.109l10.69-.686-.923 62.276-21.927 1.875q-.175.015-.348.014Z" fill="#5bc0de"/><path d="M441.814 597.139c-10.317 0-18.711-11.218-18.711-25.007s8.394-25.006 18.711-25.006 18.711 11.218 18.711 25.006-8.393 25.007-18.71 25.007Zm0-47.565c-8.967 0-16.263 10.12-16.263 22.558s7.296 22.559 16.263 22.559 16.263-10.12 16.263-22.559-7.295-22.558-16.263-22.558Z" fill="#5bc0de"/><path fill="#3f3d56" d="m411.912 610.445-1.442-31.442 14.77-28.873.623.319-14.686 28.707 1.433 31.257-.698.032z"/><path d="M486.13 634.543a1.606 1.606 0 0 1-.356.092l-14.97 2.09a1.611 1.611 0 0 1-1.734-1.022l-12.886-33.53a1.618 1.618 0 0 1 1.158-2.16l14.078-3.142a1.286 1.286 0 0 0 .312-.114l13.693-7.16a1.602 1.602 0 0 1 .333-.129l15.07-4.017a1.615 1.615 0 0 1 1.926.983l11.236 29.236a1.61 1.61 0 0 1-.213 1.547l-3.885 5.218a1.616 1.616 0 0 1-.718.544l-8.492 3.264a1.276 1.276 0 0 0-.176.084l-14.15 8.11a1.618 1.618 0 0 1-.225.106Z" fill="#fff"/><path d="m493.096 589.92-1.914.511-5.071 1.353-.01.002-6.942 3.63-2.576 1.347h-.001l-3.87 2.024-.106.024-4.02.896-1.943.434-7.924 1.769 12.44 32.369 8.166-1.14 2.002-.28 4.267-.596.05-.007 13.712-7.859 8.343-3.206 3.81-5.115-10.829-28.177Z" fill="#e4e4e4"/><path fill="#fff" d="m461.212 608.395 41.252-15.854.707 1.838-41.253 15.854zM463.567 614.523l41.253-15.854.706 1.838-41.253 15.853zM468.323 626.9l41.252-15.854.707 1.838-41.253 15.854z"/><path fill="#fff" d="m493.095 589.921 12.351 32.136-1.838.706-12.426-32.332 1.913-.51zM479.16 595.416l-2.537 7.056-.879 2.447-2.051 5.712-.44 1.22-.44 1.227-.579 1.611-4.157 11.57-1.081-2.812 3.39-9.436.767-2.136.112-.311.907-2.526 1.144-3.185.88-2.448 2.385-6.641.002-.001 2.577-1.347z"/><path fill="#fff" d="m468.586 599.707 12.74 33.152-2.002.28-12.681-32.998 1.943-.434z"/><path d="M473.556 631.437a6.957 6.957 0 0 0-8.972-5.772l-10.185-12.209-8.928 4.38 14.624 17.039a6.995 6.995 0 0 0 13.46-3.438Z" fill="#a0616a"/><path d="M453.816 629.25c-.911-.683-22.336-16.786-24.73-21.573-2.396-4.795-1.802-18.993-1.771-19.639.037-.223 3.767-22.412 6.922-30.299 3.274-8.184 11.508-5 11.59-4.967l.25.1-3.586 41.828 19.556 25.942-7.967 8.806Z" fill="#2f2e41"/></svg>