<svg xmlns="http://www.w3.org/2000/svg" data-name="Layer 1" width="731.662" height="436.38"><path d="M43.112 334.772C21.576 326.938 2.882 308.198.51 285.405a105.583 105.583 0 0 0 70.66 16.18c9.532-1.236 20.004-3.603 28.16 1.481 5.075 3.163 8.226 8.78 9.671 14.583 1.445 5.803 1.38 11.86 1.306 17.84l.671 1.334c-22.496 4.367-46.332 5.783-67.867-2.05Z" fill="#f0f0f0"/><path d="M.978 285.291A90.245 90.245 0 0 0 45.477 318.5a38.862 38.862 0 0 0 11.96 2.286 22.29 22.29 0 0 0 11.315-3.096c3.234-1.823 6.33-4.061 9.95-5.066a13.648 13.648 0 0 1 11.01 1.837c4.06 2.55 6.963 6.406 9.67 10.276 3.006 4.297 6.06 8.807 10.752 11.416.569.316.045 1.18-.522.864-8.164-4.538-11.187-14.165-18.135-20.017-3.243-2.73-7.328-4.5-11.613-3.618-3.747.771-6.942 3.077-10.2 4.951a23.784 23.784 0 0 1-10.952 3.439 35.927 35.927 0 0 1-12.003-1.818A87.554 87.554 0 0 1 22.2 307.781a91.845 91.845 0 0 1-22.11-22.007c-.376-.53.514-1.008.887-.483Z" fill="#fff"/><path d="M39.58 316.87a13.54 13.54 0 0 1-16.127 6.88c-.62-.195-.346-1.168.275-.973a12.537 12.537 0 0 0 14.987-6.43c.288-.583 1.15-.056.865.523ZM67.234 318.83a26.097 26.097 0 0 0-12.049-14.715c-.567-.318-.044-1.182.523-.864a27.144 27.144 0 0 1 12.506 15.338c.2.62-.783.858-.98.241ZM14.772 301.06a7.664 7.664 0 0 0 1.262-7.162c-.207-.617.775-.855.98-.241a8.588 8.588 0 0 1-1.378 7.926.522.522 0 0 1-.694.17.508.508 0 0 1-.17-.693Z" fill="#fff"/><path d="M54.863 230.035c.14.382.28.763.428 1.147a100.932 100.932 0 0 0 6.94 14.83c.204.37.416.742.63 1.106a106.405 106.405 0 0 0 25.675 29.588 103.332 103.332 0 0 0 13.011 8.787c6.289 3.583 13.393 6.968 17.995 12.263a17.726 17.726 0 0 1 1.354 1.727l-8.342 36.419c-.06.073-.113.148-.173.222l-.267 1.47c-.244-.118-.495-.245-.739-.363-.142-.067-.282-.143-.424-.21-.094-.048-.188-.096-.276-.133a1.416 1.416 0 0 1-.085-.046c-.088-.038-.165-.082-.244-.118q-2.106-1.059-4.204-2.151c-.008-.002-.008-.002-.014-.012a151.935 151.935 0 0 1-29.866-19.959c-.27-.236-.547-.475-.813-.728a98.602 98.602 0 0 1-11.117-11.633 87.173 87.173 0 0 1-5.177-7.14 72.487 72.487 0 0 1-9.195-20.716c-3.904-14.641-3.083-30.368 4.327-43.363.19-.332.378-.657.576-.987Z" fill="#f0f0f0"/><path d="M55.307 230.223a90.245 90.245 0 0 0 15.536 53.306 38.863 38.863 0 0 0 8.173 9.026 22.29 22.29 0 0 0 10.898 4.34c3.68.492 7.5.57 10.996 1.947a13.648 13.648 0 0 1 7.684 8.095c1.707 4.48 1.702 9.307 1.534 14.027-.187 5.24-.464 10.68 1.712 15.588.263.595-.675.97-.938.376-3.786-8.54-.404-18.045-2.428-26.901-.945-4.133-3.141-8.005-7.094-9.88-3.456-1.64-7.396-1.723-11.125-2.19a23.785 23.785 0 0 1-10.815-3.847 35.928 35.928 0 0 1-8.49-8.678 87.554 87.554 0 0 1-12.238-24.475 91.845 91.845 0 0 1-4.404-30.884c.019-.648 1.018-.494.999.15Z" fill="#fff"/><path d="M67.115 278.677a13.54 13.54 0 0 1-17.017-4.216c-.378-.529.426-1.14.804-.611a12.537 12.537 0 0 0 15.838 3.89c.58-.293.953.647.375.937ZM88.016 296.892a26.097 26.097 0 0 0-.76-19.003c-.262-.596.676-.97.937-.375a27.144 27.144 0 0 1 .75 19.776c-.214.615-1.14.213-.927-.398ZM56.826 251.118a7.664 7.664 0 0 0 5.32-4.959c.207-.617 1.134-.215.929.398a8.588 8.588 0 0 1-5.873 5.498.522.522 0 0 1-.657-.28.508.508 0 0 1 .281-.657Z" fill="#fff"/><path d="M694.929 334.02c20.409-10.422 36.658-31.318 36.21-54.23a105.583 105.583 0 0 1-68.137 24.743c-9.61-.055-20.295-1.116-27.764 4.932-4.648 3.763-7.084 9.724-7.805 15.66-.721 5.937.088 11.94.896 17.866l-.501 1.406c22.862 1.569 46.691.045 67.1-10.377Z" fill="#f0f0f0"/><path d="M730.66 279.735a90.245 90.245 0 0 1-40.079 38.427 38.863 38.863 0 0 1-11.588 3.738 22.29 22.29 0 0 1-11.61-1.681c-3.433-1.411-6.782-3.253-10.498-3.805a13.648 13.648 0 0 0-10.7 3.177c-3.717 3.03-6.123 7.213-8.334 11.387-2.455 4.633-4.931 9.485-9.267 12.65-.526.384.1 1.177.625.794 7.544-5.508 9.36-15.432 15.537-22.094 2.882-3.109 6.719-5.368 11.08-5.019 3.813.305 7.268 2.201 10.732 3.66a23.784 23.784 0 0 0 11.29 2.067 35.928 35.928 0 0 0 11.69-3.28 87.554 87.554 0 0 0 22.825-15.093 91.845 91.845 0 0 0 19.238-24.558c.307-.571-.635-.937-.94-.37Z" fill="#fff"/><path d="M696.233 315.82a13.54 13.54 0 0 0 16.85 4.844c.591-.27.2-1.2-.392-.93a12.537 12.537 0 0 1-15.664-4.54c-.357-.543-1.149.085-.794.625ZM669.03 321.164a26.097 26.097 0 0 1 10.148-16.085c.524-.385-.102-1.178-.625-.793a27.144 27.144 0 0 0-10.526 16.759c-.121.64.882.755 1.003.119ZM718.91 297.08a7.664 7.664 0 0 1-2.133-6.953c.129-.638-.875-.753-1.003-.119a8.588 8.588 0 0 0 2.342 7.697.522.522 0 0 0 .71.084.508.508 0 0 0 .084-.71Z" fill="#fff"/><path d="M670.392 231.521a72.46 72.46 0 0 1-.284 1.192 100.932 100.932 0 0 1-5.064 15.57c-.157.392-.322.788-.49 1.175a106.405 106.405 0 0 1-21.843 32.52 103.332 103.332 0 0 1-11.832 10.32c-5.8 4.328-12.435 8.56-16.351 14.382a17.728 17.728 0 0 0-1.131 1.88l12.754 35.116c.07.066.13.134.2.2l.445 1.425c.228-.146.461-.303.689-.45.133-.084.262-.176.395-.26.087-.06.175-.119.257-.167l.08-.056c.082-.048.153-.101.227-.146q1.96-1.31 3.907-2.653c.008-.002.008-.002.013-.013a151.936 151.936 0 0 0 27.187-23.478c.238-.268.484-.539.717-.823a98.603 98.603 0 0 0 9.603-12.91 87.168 87.168 0 0 0 4.26-7.724 72.487 72.487 0 0 0 6.578-21.688c2.075-15.01-.673-30.518-9.624-42.503-.23-.306-.456-.605-.693-.909Z" fill="#f0f0f0"/><path d="M669.975 231.762a90.245 90.245 0 0 1-8.866 54.812 38.863 38.863 0 0 1-7.002 9.962 22.29 22.29 0 0 1-10.282 5.647c-3.59.94-7.373 1.487-10.673 3.283a13.648 13.648 0 0 0-6.63 8.98c-1.144 4.655-.546 9.445.201 14.108.83 5.178 1.774 10.542.217 15.68-.188.623.789.88.977.258 2.708-8.94-1.817-17.958-.897-26.996.43-4.217 2.133-8.33 5.825-10.677 3.229-2.053 7.129-2.619 10.773-3.54a23.784 23.784 0 0 0 10.26-5.147 35.928 35.928 0 0 0 7.358-9.656 87.554 87.554 0 0 0 9.137-25.794 91.845 91.845 0 0 0 .575-31.19c-.098-.642-1.07-.367-.973.27Z" fill="#fff"/><path d="M664.212 281.3a13.54 13.54 0 0 0 16.37-6.275c.31-.572-.563-1.08-.873-.508a12.537 12.537 0 0 1-15.24 5.807c-.612-.218-.866.76-.257.977ZM645.709 301.946a26.097 26.097 0 0 1-1.581-18.952c.186-.623-.79-.88-.977-.257a27.144 27.144 0 0 0 1.686 19.718c.288.584 1.159.072.872-.509ZM671.035 252.686a7.664 7.664 0 0 1-5.889-4.267c-.28-.588-1.151-.075-.872.508a8.588 8.588 0 0 0 6.504 4.735.522.522 0 0 0 .617-.36.508.508 0 0 0-.36-.617ZM637.33 15H493.54v9.25a2.04 2.04 0 0 0 .46 1.3c-.29 7.23-.46 16.46-.46 26.49v247.3c0 23.18.93 42.04 2.07 42.04h139.65c1.14 0 2.07-18.86 2.07-42.04V52.04c0-10.03-.17-19.26-.46-26.49a2.04 2.04 0 0 0 .46-1.3Z" fill="#fff"/><path d="M635.26 342.38H495.61c-1.089 0-1.808 0-2.462-13.278-.393-7.969-.609-18.539-.609-29.762V52.04c0-9.694.164-19.116.461-26.53.186-4.452.4-8.018.634-10.6.46-5.056.896-5.91 1.975-5.91h139.65c1.08 0 1.516.854 1.976 5.91.235 2.592.448 6.158.633 10.598v.002c.298 7.407.461 16.828.461 26.53v247.3c0 11.224-.216 21.794-.608 29.762-.654 13.278-1.373 13.278-2.462 13.278Zm-139.082-2H634.69c.724-2.733 1.638-17.57 1.638-41.04V52.04c0-9.675-.163-19.068-.459-26.448-.184-4.408-.395-7.942-.627-10.502a28.884 28.884 0 0 0-.561-4.09H496.187a28.896 28.896 0 0 0-.562 4.09c-.23 2.55-.442 6.084-.626 10.502-.297 7.387-.46 16.78-.46 26.448v247.3c0 23.47.915 38.307 1.639 41.04Z" fill="#e4e4e4"/><path d="M635.26 10H495.61a2.074 2.074 0 0 0-2.07 2.07v12.18a2.04 2.04 0 0 0 .46 1.3 2.08 2.08 0 0 0 1.61.77h139.65a2.08 2.08 0 0 0 1.61-.77 2.04 2.04 0 0 0 .46-1.3V12.07a2.074 2.074 0 0 0-2.07-2.07Z" fill="#cacaca"/><circle data-name="Ellipse 90" cx="505.559" cy="17.565" r="2.94" fill="#fff"/><circle data-name="Ellipse 91" cx="516.717" cy="17.565" r="2.94" fill="#fff"/><circle data-name="Ellipse 92" cx="527.875" cy="17.565" r="2.94" fill="#fff"/><path d="M624.33 13.64h-12.85a.956.956 0 0 0-.95.95.8.8 0 0 0 .1.41.943.943 0 0 0 .85.54h12.85a.948.948 0 0 0 .86-.54.914.914 0 0 0 .09-.41.95.95 0 0 0-.95-.95ZM624.33 17.21h-12.85a.95.95 0 0 0 0 1.9h12.85a.95.95 0 1 0 0-1.9ZM624.33 20.78h-12.85a.95.95 0 0 0 0 1.9h12.85a.95.95 0 1 0 0-1.9Z" fill="#fff"/><path d="M579.33 53.02h-26.44a5.002 5.002 0 0 0-5 5v22.9a5.008 5.008 0 0 0 5 5h26.44a5.015 5.015 0 0 0 5-5v-22.9a5.008 5.008 0 0 0-5-5Z" fill="#5bc0de"/><path d="M612.18 100.88h-92.15a2.27 2.27 0 1 0 0 4.54h92.15a2.27 2.27 0 1 0 0-4.54ZM555.03 111.52h-35a2.27 2.27 0 1 0 0 4.54h35a2.27 2.27 0 1 0 0-4.54Z" fill="#e4e4e4"/><path d="M579.33 152.02h-26.44a5.002 5.002 0 0 0-5 5v22.9a5.008 5.008 0 0 0 5 5h26.44a5.015 5.015 0 0 0 5-5v-22.9a5.008 5.008 0 0 0-5-5Z" fill="#5bc0de"/><path d="M612.18 199.88h-92.15a2.27 2.27 0 1 0 0 4.54h92.15a2.27 2.27 0 1 0 0-4.54ZM555.03 210.52h-35a2.27 2.27 0 1 0 0 4.54h35a2.27 2.27 0 1 0 0-4.54Z" fill="#e4e4e4"/><path d="M579.33 251.02h-26.44a5.002 5.002 0 0 0-5 5v22.9a5.008 5.008 0 0 0 5 5h26.44a5.015 5.015 0 0 0 5-5v-22.9a5.008 5.008 0 0 0-5-5Z" fill="#5bc0de"/><path d="M612.18 298.88h-92.15a2.27 2.27 0 1 0 0 4.54h92.15a2.27 2.27 0 1 0 0-4.54ZM555.03 309.52h-35a2.27 2.27 0 1 0 0 4.54h35a2.27 2.27 0 1 0 0-4.54Z" fill="#e4e4e4"/><path d="M454.33 3.07A2.074 2.074 0 0 0 452.26 1H82.61a2.074 2.074 0 0 0-2.07 2.07v12.18a2.017 2.017 0 0 0 .53 1.37c-.33 8.27-.53 19.17-.53 31.11v274.91c0 25.78.93 46.74 2.07 46.74h369.65c1.14 0 2.07-20.96 2.07-46.74V47.73c0-11.94-.2-22.84-.53-31.11a2.016 2.016 0 0 0 .53-1.37Z" fill="#fff"/><path d="M452.26 370.38H82.61c-1.13 0-1.813 0-2.462-14.658-.393-8.855-.609-20.604-.609-33.082V47.73c0-11.507.189-22.57.531-31.15C80.728 0 81.476 0 82.61 0h369.65c1.132 0 1.881.003 2.539 16.58.342 8.572.53 19.635.53 31.15v274.91c0 12.479-.216 24.227-.608 33.082-.65 14.658-1.332 14.658-2.462 14.658Zm-369.067-2h368.483c.818-3.135 1.653-20.74 1.653-45.74V47.73c0-11.49-.188-22.524-.529-31.07-.416-10.504-.903-13.7-1.135-14.66H83.205c-.233.96-.72 4.156-1.136 14.66-.342 8.554-.53 19.588-.53 31.07v274.91c0 25 .836 42.604 1.654 45.74Z" fill="#e4e4e4"/><path d="M452.26 1H82.61a2.074 2.074 0 0 0-2.07 2.07v12.18a2.017 2.017 0 0 0 .53 1.37 2.051 2.051 0 0 0 1.54.7h369.65a2.051 2.051 0 0 0 1.54-.7 2.016 2.016 0 0 0 .53-1.37V3.07A2.074 2.074 0 0 0 452.26 1Z" fill="#cacaca"/><circle data-name="Ellipse 90" cx="92.559" cy="8.565" r="2.94" fill="#fff"/><circle data-name="Ellipse 91" cx="103.717" cy="8.565" r="2.94" fill="#fff"/><circle data-name="Ellipse 92" cx="114.875" cy="8.565" r="2.94" fill="#fff"/><path d="M441.33 4.64h-12.85a.95.95 0 0 0 0 1.9h12.85a.95.95 0 1 0 0-1.9ZM441.33 8.21h-12.85a.95.95 0 0 0 0 1.9h12.85a.95.95 0 1 0 0-1.9ZM441.33 11.78h-12.85a.95.95 0 0 0 0 1.9h12.85a.95.95 0 1 0 0-1.9Z" fill="#fff"/><path d="M202.09 62.02h-43.26a8.19 8.19 0 0 0-8.18 8.18v37.47a8.19 8.19 0 0 0 8.18 8.18h43.26a8.19 8.19 0 0 0 8.18-8.18V70.2a8.19 8.19 0 0 0-8.18-8.18Z" fill="#5bc0de"/><path d="M380.52 76.51H229.74a3.715 3.715 0 0 0 0 7.43h150.78a3.715 3.715 0 0 0 0-7.43ZM287.01 93.92h-57.27a3.715 3.715 0 0 0 0 7.43h57.27a3.715 3.715 0 0 0 0-7.43Z" fill="#e4e4e4"/><path d="M202.09 162.02h-43.26a8.19 8.19 0 0 0-8.18 8.18v37.47a8.19 8.19 0 0 0 8.18 8.18h43.26a8.19 8.19 0 0 0 8.18-8.18V170.2a8.19 8.19 0 0 0-8.18-8.18Z" fill="#5bc0de"/><path d="M380.52 176.51H229.74a3.715 3.715 0 0 0 0 7.43h150.78a3.715 3.715 0 0 0 0-7.43ZM287.01 193.92h-57.27a3.715 3.715 0 0 0 0 7.43h57.27a3.715 3.715 0 0 0 0-7.43Z" fill="#e4e4e4"/><path d="M202.09 262.02h-43.26a8.19 8.19 0 0 0-8.18 8.18v37.47a8.19 8.19 0 0 0 8.18 8.18h43.26a8.19 8.19 0 0 0 8.18-8.18V270.2a8.19 8.19 0 0 0-8.18-8.18Z" fill="#5bc0de"/><path d="M380.52 276.51H229.74a3.715 3.715 0 0 0 0 7.43h150.78a3.715 3.715 0 0 0 0-7.43ZM287.01 293.92h-57.27a3.715 3.715 0 0 0 0 7.43h57.27a3.715 3.715 0 0 0 0-7.43Z" fill="#e4e4e4"/><path d="M518.262 435.38H270.613c-1.141 0-2.07-17.55-2.07-39.123V166.123c0-21.574.929-39.124 2.07-39.124h247.65c1.141 0 2.07 17.55 2.07 39.124v230.134c0 21.573-.929 39.123-2.07 39.123Z" fill="#fff"/><path d="M518.262 436.38H270.613c-1.047 0-1.804 0-2.462-12.419-.392-7.415-.608-17.253-.608-27.705V166.123c0-10.451.216-20.29.608-27.705.658-12.419 1.415-12.419 2.462-12.419h247.65c1.047 0 1.804 0 2.461 12.419.393 7.415.609 17.254.609 27.705v230.133c0 10.452-.216 20.29-.609 27.705-.657 12.419-1.414 12.419-2.462 12.419Zm-247.095-2h246.542c.718-2.59 1.624-16.394 1.624-38.124V166.123c0-21.73-.906-35.533-1.624-38.124H271.167c-.718 2.59-1.624 16.394-1.624 38.124v230.133c0 21.73.906 35.533 1.624 38.124Z" fill="#e4e4e4"/><path d="M518.262 143.32H270.613a2.073 2.073 0 0 1-2.07-2.07v-12.18a2.073 2.073 0 0 1 2.07-2.07h247.65a2.073 2.073 0 0 1 2.07 2.07v12.18a2.073 2.073 0 0 1-2.07 2.07Z" fill="#cacaca"/><circle data-name="Ellipse 90" cx="280.559" cy="134.565" r="2.94" fill="#fff"/><circle data-name="Ellipse 91" cx="291.717" cy="134.565" r="2.94" fill="#fff"/><circle data-name="Ellipse 92" cx="302.875" cy="134.565" r="2.94" fill="#fff"/><path d="M507.33 132.542H494.48a.952.952 0 0 1 0-1.903h12.849a.952.952 0 0 1 0 1.903ZM507.33 136.111H494.48a.952.952 0 0 1 0-1.903h12.849a.952.952 0 1 1 0 1.903ZM507.33 139.68H494.48a.952.952 0 0 1 0-1.903h12.849a.952.952 0 0 1 0 1.903Z" fill="#fff"/><path d="M346.713 218.917H315.12a5.981 5.981 0 0 1-5.975-5.975v-27.363a5.981 5.981 0 0 1 5.975-5.975h31.593a5.981 5.981 0 0 1 5.975 5.975v27.363a5.981 5.981 0 0 1-5.975 5.975Z" fill="#5bc0de"/><path d="M477.018 195.616h-110.11a2.712 2.712 0 0 1 0-5.425h110.11a2.712 2.712 0 0 1 0 5.425ZM408.729 208.33h-41.822a2.712 2.712 0 1 1 0-5.425h41.822a2.712 2.712 0 1 1 0 5.425Z" fill="#e4e4e4"/><path d="M346.713 299.916H315.12a5.981 5.981 0 0 1-5.975-5.974v-27.363a5.981 5.981 0 0 1 5.975-5.975h31.593a5.981 5.981 0 0 1 5.975 5.975v27.363a5.981 5.981 0 0 1-5.975 5.974Z" fill="#5bc0de"/><path d="M477.018 276.616h-110.11a2.712 2.712 0 0 1 0-5.425h110.11a2.712 2.712 0 0 1 0 5.425ZM408.729 289.33h-41.822a2.712 2.712 0 1 1 0-5.425h41.822a2.712 2.712 0 1 1 0 5.425Z" fill="#e4e4e4"/><path d="M346.713 380.916H315.12a5.981 5.981 0 0 1-5.975-5.974v-27.363a5.981 5.981 0 0 1 5.975-5.975h31.593a5.981 5.981 0 0 1 5.975 5.975v27.363a5.981 5.981 0 0 1-5.975 5.974Z" fill="#5bc0de"/><path d="M477.018 357.616h-110.11a2.712 2.712 0 1 1 0-5.425h110.11a2.712 2.712 0 1 1 0 5.425ZM408.729 370.33h-41.822a2.712 2.712 0 1 1 0-5.425h41.822a2.712 2.712 0 1 1 0 5.425Z" fill="#e4e4e4"/></svg>